#!OML:ASF H:\Dans Jumps\Project 1\Capture day 1\Session 1\subject.ASF
:FULLY-SPECIFIED
:DEGREES
249
root 0.542451 17.2652 -14.1085 9.53194 -0.96099 -1.80861
lowerback 3.41423 -0.359015 0.247378
upperback 5.91461 -0.545308 2.07148
thorax 4.20618 -0.314186 1.99947
lowerneck -15.3887 0.470304 -2.03393
upperneck 21.1549 1.36179 -0.823484
head 9.18751 0.378298 0.224978
rclavicle 3.97569e-016 4.45278e-014
rhumerus -49.0166 -22.0275 -63.1215
rradius 23.768
rwrist 32.8359
rhand -18.3466 -26.2462
rfingers 7.12502
rthumb 7.93585 -56.0773
lclavicle 3.97569e-016 4.45278e-014
lhumerus -43.6808 6.23977 80.7045
lradius 14.9802
lwrist 4.43569
lhand -24.4395 -3.02672
lfingers 7.12502
lthumb 2.05292 26.9432
rfemur -23.0231 -1.38459 20.2197
rtibia 31.797
rfoot -20.2052 -5.54726
rtoes 4.17025
lfemur -22.6273 6.50937 -18.3215
ltibia 31.5723
lfoot -20.1007 11.4309
ltoes -11.5962
250
root 0.542101 17.2554 -14.0983 9.58789 -0.888922 -1.79045
lowerback 3.55182 -0.369936 0.244688
upperback 5.91051 -0.5577 2.0757
thorax 4.1248 -0.320245 2.00605
lowerneck -15.4163 0.470601 -2.0354
upperneck 21.0694 1.3597 -0.814138
head 9.16285 0.37927 0.228058
rclavicle -7.15625e-015 1.86858e-014
rhumerus -48.8978 -22.1599 -63.0672
rradius 23.6452
rwrist 33.0355
rhand -18.3679 -26.2202
rfingers 7.12502
rthumb 7.91527 -56.052
lclavicle -7.15625e-015 1.86858e-014
lhumerus -43.519 6.46557 80.4984
lradius 14.8048
lwrist 4.02158
lhand -24.4169 -3.01172
lfingers 7.12502
lthumb 2.07469 26.9579
rfemur -23.1867 -1.3364 20.206
rtibia 32.1215
rfoot -20.6148 -5.77782
rtoes 4.07083
lfemur -22.8037 6.43027 -18.3466
ltibia 31.9071
lfoot -20.602 11.8112
ltoes -11.8033
251
root 0.541743 17.2451 -14.0877 9.64523 -0.807424 -1.77084
lowerback 3.70123 -0.384085 0.242368
upperback 5.89823 -0.574049 2.08086
thorax 4.02841 -0.328186 2.01353
lowerneck -15.4357 0.471543 -2.04176
upperneck 20.9863 1.35801 -0.798197
head 9.13745 0.380764 0.234228
rclavicle -1.98785e-015 6.36111e-015
rhumerus -48.7613 -22.2838 -63.0295
rradius 23.5277
rwrist 33.2386
rhand -18.373 -26.2116
rfingers 7.12502
rthumb 7.91033 -56.0436
lclavicle -1.98785e-015 6.36111e-015
lhumerus -43.3508 6.67847 80.3091
lradius 14.6599
lwrist 3.67401
lhand -24.4075 -2.98601
lfingers 7.12502
lthumb 2.08376 26.9836
rfemur -23.3589 -1.29521 20.1932
rtibia 32.4625
rfoot -21.0247 -6.02574
rtoes 4.05032
lfemur -22.987 6.32414 -18.3709
ltibia 32.2502
lfoot -21.0727 12.2194
ltoes -12.0042
252
root 0.541405 17.2343 -14.0765 9.70511 -0.716592 -1.75108
lowerback 3.85815 -0.401245 0.243245
upperback 5.88099 -0.594146 2.08651
thorax 3.92277 -0.337812 2.01986
lowerneck -15.4493 0.470799 -2.05573
upperneck 20.8994 1.35413 -0.77547
head 9.10962 0.381446 0.243678
rclavicle 6.36111e-015 -4.01545e-014
rhumerus -48.6026 -22.3861 -63.0244
rradius 23.427
rwrist 33.4147
rhand -18.3626 -26.2186
rfingers 7.12502
rthumb 7.92035 -56.0503
lclavicle 6.36111e-015 -4.01545e-014
lhumerus -43.1688 6.87185 80.1417
lradius 14.5442
lwrist 3.40146
lhand -24.4131 -2.96201
lfingers 7.12502
lthumb 2.07841 27.0076
rfemur -23.5399 -1.26077 20.183
rtibia 32.8193
rfoot -21.4391 -6.30908
rtoes 4.04051
lfemur -23.1779 6.19296 -18.3931
ltibia 32.6003
lfoot -21.5108 12.6538
ltoes -12.1865
253
root 0.54119 17.223 -14.0647 9.76943 -0.622284 -1.73268
lowerback 4.01829 -0.419429 0.249613
upperback 5.86021 -0.615384 2.09228
thorax 3.8117 -0.347749 2.02338
lowerneck -15.4617 0.469185 -2.07128
upperneck 20.8104 1.34981 -0.754473
head 9.08085 0.381641 0.252722
rclavicle -4.96962e-016 1.82882e-014
rhumerus -48.4207 -22.4733 -63.0492
rradius 23.3446
rwrist 33.5728
rhand -18.3288 -26.2362
rfingers 7.12502
rthumb 7.95298 -56.0666
lclavicle -4.96962e-016 1.82882e-014
lhumerus -42.9705 7.04156 79.999
lradius 14.4572
lwrist 3.20022
lhand -24.4325 -2.94827
lfingers 7.12502
lthumb 2.05963 27.0215
rfemur -23.7306 -1.22749 20.1757
rtibia 33.1904
rfoot -21.8624 -6.63041
rtoes 4.00814
lfemur -23.377 6.04239 -18.4124
ltibia 32.9573
lfoot -21.9185 13.1053
ltoes -12.3239
254
root 0.541036 17.2113 -14.0522 9.83665 -0.529983 -1.71369
lowerback 4.18103 -0.435757 0.258373
upperback 5.83866 -0.634 2.09764
thorax 3.69834 -0.356269 2.02528
lowerneck -15.4808 0.464401 -2.09126
upperneck 20.72 1.34275 -0.73478
head 9.05291 0.380057 0.261736
rclavicle -5.46658e-015 -3.57812e-015
rhumerus -48.217 -22.5342 -63.1117
rradius 23.2888
rwrist 33.6947
rhand -18.2782 -26.2529
rfingers 7.12502
rthumb 8.00179 -56.0815
lclavicle -5.46658e-015 -3.57812e-015
lhumerus -42.7461 7.18944 79.8803
lradius 14.3866
lwrist 3.05257
lhand -24.4663 -2.95835
lfingers 7.12502
lthumb 2.02697 27.0118
rfemur -23.9288 -1.19245 20.1693
rtibia 33.5747
rfoot -22.2978 -6.99108
rtoes 3.8968
lfemur -23.5804 5.87869 -18.431
ltibia 33.3211
lfoot -22.306 13.5628
ltoes -12.414
255
root 0.540877 17.1991 -14.0392 9.90882 -0.442195 -1.69634
lowerback 4.34277 -0.448453 0.26962
upperback 5.81885 -0.64775 2.10337
thorax 3.58726 -0.362297 2.02622
lowerneck -15.5027 0.459394 -2.10482
upperneck 20.6211 1.33625 -0.726012
head 9.02272 0.378155 0.266001
rclavicle -2.18663e-015 1.63003e-014
rhumerus -47.9891 -22.5715 -63.2133
rradius 23.2628
rwrist 33.779
rhand -18.2153 -26.2651
rfingers 7.12502
rthumb 8.06255 -56.0913
lclavicle -2.18663e-015 1.63003e-014
lhumerus -42.4903 7.32754 79.778
lradius 14.3278
lwrist 2.9296
lhand -24.5103 -3.00566
lfingers 7.12502
lthumb 1.98454 26.9649
rfemur -24.1389 -1.15641 20.167
rtibia 33.9733
rfoot -22.7447 -7.38591
rtoes 3.65152
lfemur -23.7909 5.7055 -18.4461
ltibia 33.6931
lfoot -22.6799 14.0152
ltoes -12.4697
